<?xml version="1.0" encoding="utf-8"?>
<!-- Generator: Adobe Illustrator 27.8.1, SVG Export Plug-In . SVG Version: 6.00 Build 0)  -->
<svg version="1.1" id="Layer_1" xmlns="http://www.w3.org/2000/svg" xmlns:xlink="http://www.w3.org/1999/xlink" x="0px" y="0px"
	 viewBox="0 0 884.9 578.3" style="enable-background:new 0 0 884.9 578.3;" xml:space="preserve">
<path d="M360,239.3l3.7,8.8h32.6c5.3,0,9.6-4.2,9.9-9.4l19.8-96.6c2.6-13.8,13.5-30,35.9-30.6l59.4,0l3.6-8.9
	c-22.7-17.9-51.3-28.6-82.4-28.6c-73.5,0-133,59.6-133,133c0,11.2,1.4,22,4,32.4H360z"/>
<path d="M571.5,174.5h-46.6l-3.7-8.8h-32.6c-5.3,0-9.6,4.2-9.9,9.4L459,271.6c-4.8,21.2-16.6,30.7-38.3,30.8l-57.1,0l-3.6,8.9
	c22.7,17.9,51.3,28.6,82.4,28.6c73.5,0,133-59.6,133-133C575.5,195.7,574.1,184.9,571.5,174.5"/>
<path d="M82.5,474.8c1.9,0,3.3,1.2,3.3,3.1v2.2c0,6,2.7,8.8,9.1,8.8H140c10.7,0,12.8-2.1,12.8-10.9v-7.6c0-8.8-2.1-11-12.8-11H92.6
	c-16.2,0-23.7-7.3-23.7-22.8V423c0-15.5,7.4-22.8,23.7-22.8h52.7c17.6,0,24.1,6.4,24.1,23.2v3.1c0,1.9-1,3.1-3.3,3.1h-11.6
	c-2.1,0-3.3-1.2-3.3-3.1v-2.1c0-6-2.7-8.8-9.2-8.8h-41.7c-10.6,0-12.8,2.2-12.8,10.9v6.4c0,8.8,2.2,11,12.8,11h47.3
	c16.2,0,23.8,7.3,23.8,22.8v14.9c0,15.5-7.6,22.8-23.8,22.8h-56c-17.6,0-24.3-6.3-24.3-23.2v-3.3c0-1.9,1.2-3.1,3.3-3.1H82.5z"/>
<path d="M195.9,428.9c0-1.9,0.9-2.8,3-2.8h11.2c2.1,0,3,0.9,3,2.8v72.6c0,1.9-0.9,2.8-3,2.8h-11.2c-2.1,0-3-0.9-3-2.8V428.9z
	 M195.9,397.9c0-1.9,0.9-2.8,3-2.8h11.2c2.1,0,3,0.9,3,2.8v11.6c0,1.8-0.9,2.8-3,2.8h-11.2c-2.1,0-3-1-3-2.8V397.9z"/>
<path d="M262.5,440.2V481c0,7.7,1.6,9.2,8.5,9.2h11.2c1.9,0,2.8,0.9,2.8,2.8v8.5c0,1.9-0.9,2.8-2.8,2.8h-15.9
	c-14.7,0-20.8-5.8-20.8-19.9v-44.2h-8.9c-1.8,0-2.8-0.9-2.8-2.8v-8.5c0-1.9,1-2.8,2.8-2.8h8.9V409c0-1.9,1-2.8,2.8-2.8h11.3
	c1.9,0,3,0.9,3,2.8v17.1h19.7c1.9,0,2.8,0.9,2.8,2.8v8.5c0,1.9-0.9,2.8-2.8,2.8H262.5z"/>
<path d="M322.8,458.1H368v-11.3c0-5.1-2.7-6.7-7.7-6.7h-24.9c-10.7,0-12.7,1.9-12.7,10.6V458.1z M328,504.4
	c-15.3,0-22.2-6.6-22.2-21.3v-35.7c0-14.7,6.8-21.3,22.2-21.3h36c14.1,0,20.7,6.1,20.7,20v22.9c0,1.9-1,2.8-2.8,2.8h-59.1v8
	c0,8.8,1.9,10.6,12.7,10.6h25.5c4.9,0,7.3-1.5,7.3-6v-0.1c0-1.8,0.9-2.8,3-2.8h10.7c1.8,0,2.8,1,2.8,2.8v0.3
	c0,14-6.1,19.8-20.7,19.8H328z"/>
<path d="M421.9,474.8c1.9,0,3.3,1.2,3.3,3.1v2.2c0,6,2.7,8.8,9.1,8.8h45.1c10.7,0,12.8-2.1,12.8-10.9v-7.6c0-8.8-2.1-11-12.8-11H432
	c-16.2,0-23.7-7.3-23.7-22.8V423c0-15.5,7.4-22.8,23.7-22.8h52.7c17.6,0,24.1,6.4,24.1,23.2v3.1c0,1.9-1,3.1-3.3,3.1h-11.6
	c-2.1,0-3.3-1.2-3.3-3.1v-2.1c0-6-2.7-8.8-9.2-8.8h-41.7c-10.6,0-12.8,2.2-12.8,10.9v6.4c0,8.8,2.2,11,12.8,11h47.3
	c16.2,0,23.8,7.3,23.8,22.8v14.9c0,15.5-7.6,22.8-23.8,22.8h-56c-17.6,0-24.3-6.3-24.3-23.2v-3.3c0-1.9,1.2-3.1,3.3-3.1H421.9z"/>
<path d="M595.6,480.4c0-1.9,0.9-2.8,3-2.8h10.7c1.8,0,2.8,0.9,2.8,2.8v4.2c0,14-6.1,19.8-20.7,19.8h-36c-15.3,0-22.2-6.6-22.2-21.3
	v-35.7c0-14.7,6.8-21.3,22.2-21.3h36c14.6,0,20.7,5.8,20.7,19.8v4.2c0,1.9-1,2.8-2.8,2.8h-10.7c-2.1,0-3-0.9-3-2.8v-3.7
	c0-4.5-2.5-6.1-7.6-6.1h-25.2c-10.7,0-12.7,1.8-12.7,10.6v28.9c0,8.8,1.9,10.6,12.7,10.6H588c5.1,0,7.6-1.6,7.6-6.1V480.4z"/>
<path d="M693.9,475.8v-4h-36.3c-4.9,0-7.4,1.5-7.4,6.2v6c0,4.8,2.2,6.4,7.4,6.4h20.1C689.4,490.4,693.9,485.8,693.9,475.8
	 M632.8,484.6v-6.7c0-15.2,6-19.8,20.7-19.8h40.3v-7.4c0-8.6-1.9-10.6-12.5-10.6h-22c-4.8,0-7.3,1.5-7.3,6v0.7
	c0,1.8-0.9,2.7-2.8,2.7h-10.7c-1.9,0-3-0.9-3-2.7v-0.9c0-14,6.1-19.8,20.7-19.8h32.6c15.2,0,22.2,6.5,22.2,21.3v39.5
	c0,2.4,1,3.4,3.6,3.4h0.9c1.9,0,2.8,0.9,2.8,2.8v8.5c0,1.9-0.9,2.8-2.8,2.8h-7.1c-9.1,0-12.7-4.6-12.7-11.9v-1
	c-3,8.5-10.3,13-21.9,13h-20.2C638.8,504.4,632.8,499.3,632.8,484.6"/>
<path d="M800.3,450.8c0-8.8-1.9-10.6-12.5-10.6h-14.1c-11.9,0-16.2,4.5-16.2,14.6v46.7c0,1.9-0.9,2.8-3,2.8h-11.2
	c-2.1,0-3-0.9-3-2.8v-72.6c0-1.9,0.9-2.8,3-2.8h9.2c1.9,0,2.8,0.9,2.8,2.8v10.6c2.8-8.8,10-13.4,21.9-13.4h18
	c15.3,0,22.2,6.5,22.2,21.3v54.2c0,1.9-1,2.8-2.8,2.8h-11.3c-1.9,0-3-0.9-3-2.8V450.8z"/>
</svg>
