<?xml version="1.0" encoding="utf-8"?>
<!-- Generator: Adobe Illustrator 27.8.1, SVG Export Plug-In . SVG Version: 6.00 Build 0)  -->
<svg version="1.1" id="Layer_1" xmlns="http://www.w3.org/2000/svg" xmlns:xlink="http://www.w3.org/1999/xlink" x="0px" y="0px"
	 viewBox="0 0 1000 1000" style="enable-background:new 0 0 1000 1000;" xml:space="preserve">
<style type="text/css">
	.st0{fill:#42AECC;}
</style>
<g>
	<path class="st0" d="M219.7,610.1l12.4,29.8h110.8c17.9,0,32.7-14.1,33.6-31.8l67.3-328.8c8.7-46.8,46-102.2,122.3-104.2l201.9,0
		l12.3-30.3C703.2,83.9,605.9,47.5,500,47.5C250.1,47.5,47.5,250.1,47.5,500c0,38,4.7,74.8,13.5,110.1H219.7z"/>
	<path class="st0" d="M939,389.9H780.3L767.9,360H657c-17.9,0-32.6,14.1-33.6,31.9l-67.1,328.2c-16.4,72.1-56.6,104.4-130.2,104.8
		l-194.1,0l-12.3,30.3c77.1,60.9,174.4,97.4,280.3,97.4c249.9,0,452.6-202.6,452.6-452.5C952.5,462,947.8,425.1,939,389.9"/>
</g>
</svg>
