<?xml version="1.0" encoding="utf-8"?>
<!-- Generator: Adobe Illustrator 27.8.1, SVG Export Plug-In . SVG Version: 6.00 Build 0)  -->
<svg version="1.1" id="Layer_1" xmlns="http://www.w3.org/2000/svg" xmlns:xlink="http://www.w3.org/1999/xlink" x="0px" y="0px"
	 viewBox="0 0 1184.7 369.9" style="enable-background:new 0 0 1184.7 369.9;" xml:space="preserve">
<style type="text/css">
	.st0{fill:#42AECC;}
	.st1{fill:#00233C;}
</style>
<path class="st0" d="M99.4,214l3.4,8.2h30.3c4.9,0,8.9-3.9,9.2-8.7l18.4-89.9c2.4-12.8,12.6-28,33.4-28.5l55.2,0l3.4-8.3
	C231.6,70.1,205,60.2,176,60.2c-68.3,0-123.7,55.4-123.7,123.7c0,10.4,1.3,20.5,3.7,30.1H99.4z"/>
<path class="st0" d="M296.1,153.8h-43.4l-3.4-8.2H219c-4.9,0-8.9,3.9-9.2,8.7l-18.4,89.7c-4.5,19.7-15.5,28.6-35.6,28.6l-53.1,0
	l-3.4,8.3c21.1,16.7,47.7,26.6,76.6,26.6c68.3,0,123.7-55.4,123.7-123.7C299.8,173.5,298.5,163.4,296.1,153.8"/>
<path class="st1" d="M379,209.5c2,0,3.4,1.2,3.4,3.2v2.3c0,6.1,2.7,9,9.3,9h46.1c11,0,13.1-2.1,13.1-11.1v-7.8
	c0-9-2.1-11.3-13.1-11.3h-48.4c-16.6,0-24.2-7.5-24.2-23.3v-14c0-15.8,7.6-23.3,24.2-23.3h53.9c18,0,24.7,6.5,24.7,23.7v3.2
	c0,2-1.1,3.2-3.4,3.2h-11.9c-2.1,0-3.4-1.2-3.4-3.2V158c0-6.1-2.7-9-9.4-9h-42.6c-10.8,0-13.1,2.3-13.1,11.1v6.5
	c0,9,2.3,11.3,13.1,11.3h48.4c16.6,0,24.3,7.4,24.3,23.3v15.2c0,15.8-7.8,23.3-24.3,23.3h-57.2c-18,0-24.8-6.4-24.8-23.7v-3.4
	c0-2,1.2-3.2,3.3-3.2H379z"/>
<path class="st1" d="M495,162.6c0-2,0.9-2.9,3-2.9h11.4c2.1,0,3,0.9,3,2.9v74.3c0,2-0.9,2.9-3,2.9H498c-2.1,0-3-0.9-3-2.9V162.6z
	 M495,131c0-2,0.9-2.9,3-2.9h11.4c2.1,0,3,0.9,3,2.9v11.9c0,1.8-0.9,2.9-3,2.9H498c-2.1,0-3-1.1-3-2.9V131z"/>
<path class="st1" d="M563,174.2v41.7c0,7.9,1.7,9.4,8.7,9.4h11.4c2,0,2.9,0.9,2.9,2.9v8.7c0,2-0.9,2.9-2.9,2.9h-16.3
	c-15.1,0-21.3-5.9-21.3-20.4v-45.2h-9.1c-1.8,0-2.9-0.9-2.9-2.9v-8.7c0-2,1.1-2.9,2.9-2.9h9.1v-17.5c0-2,1.1-2.9,2.9-2.9H560
	c2,0,3,0.9,3,2.9v17.5h20.1c2,0,2.9,0.9,2.9,2.9v8.7c0,2-0.9,2.9-2.9,2.9H563z"/>
<path class="st1" d="M624.6,192.4h46.3v-11.6c0-5.2-2.7-6.8-7.9-6.8h-25.4c-11,0-12.9,2-12.9,10.8V192.4z M630,239.8
	c-15.7,0-22.7-6.7-22.7-21.8v-36.5c0-15.1,7-21.8,22.7-21.8h36.8c14.5,0,21.2,6.2,21.2,20.4v23.4c0,2-1.1,2.9-2.9,2.9h-60.4v8.2
	c0,9,2,10.8,12.9,10.8h26c5,0,7.5-1.5,7.5-6.1v-0.2c0-1.8,0.9-2.9,3-2.9h11c1.8,0,2.9,1.1,2.9,2.9v0.3c0,14.3-6.2,20.2-21.2,20.2
	H630z"/>
<path class="st1" d="M726,209.5c2,0,3.4,1.2,3.4,3.2v2.3c0,6.1,2.7,9,9.3,9h46.1c11,0,13.1-2.1,13.1-11.1v-7.8
	c0-9-2.1-11.3-13.1-11.3h-48.4c-16.6,0-24.2-7.5-24.2-23.3v-14c0-15.8,7.6-23.3,24.2-23.3h53.9c18,0,24.7,6.5,24.7,23.7v3.2
	c0,2-1.1,3.2-3.4,3.2h-11.9c-2.1,0-3.4-1.2-3.4-3.2V158c0-6.1-2.7-9-9.4-9h-42.6c-10.8,0-13.1,2.3-13.1,11.1v6.5
	c0,9,2.3,11.3,13.1,11.3h48.4c16.6,0,24.3,7.4,24.3,23.3v15.2c0,15.8-7.8,23.3-24.3,23.3h-57.2c-18,0-24.8-6.4-24.8-23.7v-3.4
	c0-2,1.2-3.2,3.3-3.2H726z"/>
<path class="st1" d="M903.6,215.3c0-2,0.9-2.9,3-2.9h11c1.8,0,2.9,0.9,2.9,2.9v4.3c0,14.3-6.2,20.2-21.2,20.2h-36.8
	c-15.7,0-22.7-6.7-22.7-21.8v-36.5c0-15.1,7-21.8,22.7-21.8h36.8c14.9,0,21.2,5.9,21.2,20.2v4.3c0,2-1.1,2.9-2.9,2.9h-11
	c-2.1,0-3-0.9-3-2.9v-3.8c0-4.6-2.6-6.2-7.8-6.2h-25.7c-11,0-12.9,1.8-12.9,10.8v29.5c0,9,2,10.8,12.9,10.8h25.7
	c5.2,0,7.8-1.7,7.8-6.2V215.3z"/>
<path class="st1" d="M1004,210.5v-4.1h-37.1c-5,0-7.6,1.5-7.6,6.4v6.1c0,4.9,2.3,6.5,7.6,6.5h20.5
	C999.4,225.5,1004,220.7,1004,210.5 M941.6,219.5v-6.8c0-15.5,6.1-20.2,21.2-20.2h41.2v-7.6c0-8.8-2-10.8-12.8-10.8h-22.5
	c-4.9,0-7.5,1.5-7.5,6.1v0.8c0,1.8-0.9,2.7-2.9,2.7h-11c-2,0-3.1-0.9-3.1-2.7V180c0-14.3,6.2-20.2,21.2-20.2h33.3
	c15.5,0,22.7,6.7,22.7,21.8v40.3c0,2.4,1.1,3.5,3.7,3.5h0.9c2,0,2.9,0.9,2.9,2.9v8.7c0,2-0.9,2.9-2.9,2.9h-7.3
	c-9.3,0-12.9-4.7-12.9-12.2v-1.1c-3,8.7-10.5,13.2-22.4,13.2h-20.7C947.7,239.8,941.6,234.6,941.6,219.5"/>
<path class="st1" d="M1112.8,185c0-9-2-10.8-12.8-10.8h-14.4c-12.2,0-16.6,4.6-16.6,14.9v47.8c0,2-0.9,2.9-3,2.9h-11.4
	c-2.1,0-3-0.9-3-2.9v-74.3c0-2,0.9-2.9,3-2.9h9.4c2,0,2.9,0.9,2.9,2.9v10.8c2.9-9,10.2-13.7,22.4-13.7h18.4
	c15.7,0,22.7,6.7,22.7,21.8v55.4c0,2-1.1,2.9-2.9,2.9h-11.6c-2,0-3-0.9-3-2.9V185z"/>
</svg>
